<svg width="300" height="300" viewBox="0 0 300 300" fill="none" xmlns="http://www.w3.org/2000/svg">
<path d="M168.704 187.395L168.309 186.606C178.471 206.885 203.148 215.086 223.427 204.925L260.516 186.339L241.93 149.25C231.769 128.971 207.091 120.77 186.813 130.932C207.091 120.769 215.293 96.0927 205.131 75.8135L186.545 38.7245L149.456 57.31C129.178 67.4717 120.976 92.149 131.138 112.428L131.533 113.217C121.371 92.9376 96.6943 84.7365 76.4155 94.8982L39.3265 113.484L57.912 150.573C68.0737 170.851 92.751 179.053 113.03 168.891C92.751 179.053 84.5494 203.73 94.7112 224.009L113.297 261.098L150.386 242.513C170.664 232.351 178.866 207.674 168.704 187.395Z" fill="#2FD83F"/>
<path d="M82.6312 132.656L87.4064 119.495L89.8505 120.382L85.0753 133.542L82.6312 132.656ZM73.3813 129.299L78.1565 116.139L80.6006 117.026L75.8254 130.186L73.3813 129.299ZM77.6651 124.471L78.4223 122.384L85.6229 124.997L84.8657 127.084L77.6651 124.471ZM92.6814 136.302L93.4182 134.272L93.4435 133.792L94.7328 130.238C94.9829 129.549 94.9694 128.941 94.6922 128.415C94.4196 127.877 93.8634 127.455 93.0236 127.15C92.4596 126.946 91.87 126.831 91.2549 126.806C90.6523 126.786 90.1061 126.865 89.6164 127.041L89.3159 124.996C90.005 124.778 90.7556 124.703 91.5679 124.771C92.3972 124.831 93.213 125.006 94.0151 125.297C95.469 125.825 96.4635 126.583 96.9984 127.571C97.5504 128.552 97.5627 129.769 97.0351 131.223L94.8999 137.107L92.6814 136.302ZM89.4752 135.288C88.7231 135.015 88.1106 134.651 87.6375 134.196C87.169 133.728 86.86 133.211 86.7103 132.646C86.5778 132.073 86.6161 131.499 86.8253 130.922C87.03 130.358 87.3458 129.898 87.7727 129.543C88.2122 129.191 88.7867 128.996 89.4964 128.955C90.2061 128.915 91.0685 129.079 92.0837 129.447L94.9978 130.505L94.4316 132.065L91.6867 131.069C90.8846 130.778 90.2979 130.714 89.9266 130.877C89.5599 131.028 89.3084 131.291 89.1719 131.667C89.0173 132.093 89.0637 132.493 89.3112 132.867C89.5586 133.24 89.9831 133.536 90.5848 133.754C91.1613 133.964 91.723 134.018 92.2697 133.919C92.8289 133.824 93.3021 133.556 93.6891 133.115L93.5722 134.668C93.1329 135.175 92.5595 135.485 91.8522 135.597C91.1574 135.714 90.3651 135.611 89.4752 135.288ZM101.553 139.67C100.738 139.375 100.061 138.916 99.5205 138.295C98.9926 137.677 98.6646 136.92 98.5364 136.023C98.4253 135.117 98.5812 134.081 99.0041 132.916C99.4316 131.738 99.9698 130.841 100.619 130.225C101.28 129.614 102.009 129.247 102.805 129.125C103.606 128.99 104.432 129.077 105.285 129.386C106.275 129.746 107.069 130.275 107.666 130.974C108.276 131.677 108.661 132.491 108.823 133.415C108.997 134.343 108.895 135.327 108.517 136.368C108.14 137.408 107.584 138.235 106.851 138.848C106.135 139.454 105.317 139.831 104.398 139.979C103.492 140.133 102.543 140.03 101.553 139.67ZM94.7124 141.167L99.6787 127.48L101.916 128.292L101.056 130.661L100.013 133.303L99.2318 136.041L97.0625 142.02L94.7124 141.167ZM102.02 137.563C102.584 137.768 103.131 137.824 103.66 137.733C104.202 137.646 104.692 137.412 105.128 137.031C105.564 136.651 105.898 136.141 106.13 135.501C106.366 134.85 106.437 134.244 106.342 133.685C106.251 133.113 106.026 132.62 105.666 132.206C105.318 131.796 104.862 131.488 104.298 131.284C103.734 131.079 103.181 131.02 102.639 131.107C102.097 131.194 101.608 131.428 101.172 131.809C100.74 132.177 100.406 132.687 100.17 133.339C99.9378 133.978 99.867 134.584 99.9574 135.155C100.048 135.727 100.273 136.22 100.633 136.635C100.994 137.049 101.456 137.359 102.02 137.563ZM112.562 143.665C111.747 143.369 111.069 142.911 110.529 142.289C110.001 141.672 109.673 140.915 109.545 140.017C109.434 139.112 109.59 138.076 110.013 136.91C110.44 135.732 110.978 134.835 111.627 134.22C112.289 133.609 113.018 133.242 113.814 133.119C114.614 132.984 115.441 133.072 116.293 133.381C117.283 133.74 118.077 134.269 118.675 134.968C119.285 135.672 119.67 136.486 119.831 137.409C120.005 138.338 119.903 139.322 119.526 140.362C119.148 141.402 118.593 142.229 117.86 142.843C117.144 143.448 116.326 143.825 115.407 143.974C114.5 144.127 113.552 144.024 112.562 143.665ZM105.721 145.161L110.687 131.474L112.925 132.286L112.065 134.655L111.021 137.298L110.24 140.035L108.071 146.014L105.721 145.161ZM113.028 141.558C113.592 141.762 114.139 141.819 114.669 141.727C115.211 141.64 115.7 141.407 116.136 141.026C116.572 140.645 116.906 140.135 117.138 139.496C117.375 138.844 117.445 138.239 117.351 137.679C117.26 137.107 117.035 136.614 116.675 136.2C116.327 135.79 115.871 135.483 115.307 135.278C114.743 135.074 114.19 135.015 113.648 135.102C113.105 135.189 112.616 135.423 112.18 135.803C111.749 136.172 111.415 136.682 111.178 137.333C110.946 137.972 110.876 138.578 110.966 139.15C111.056 139.722 111.282 140.215 111.642 140.629C112.002 141.043 112.464 141.353 113.028 141.558ZM117.234 149.488C116.745 149.31 116.286 149.051 115.856 148.711C115.426 148.371 115.101 147.997 114.88 147.591L116.447 146.202C116.608 146.502 116.816 146.769 117.071 147.003C117.327 147.238 117.611 147.412 117.924 147.526C118.351 147.68 118.734 147.699 119.074 147.581C119.415 147.464 119.789 147.195 120.197 146.776L121.257 145.671L121.547 145.457L128.565 137.961L130.821 138.78L122.185 147.922C121.598 148.561 121.031 149.029 120.484 149.326C119.948 149.629 119.411 149.781 118.871 149.784C118.344 149.791 117.798 149.692 117.234 149.488ZM120.543 146.816L119.785 134.775L122.229 135.662L122.769 145.666L120.543 146.816ZM130.308 149.955L135.083 136.795L137.095 137.525L141.672 150.653L140.675 150.291L144.352 140.158L146.777 141.038L142.002 154.198L139.991 153.468L135.414 140.34L136.41 140.702L132.733 150.835L130.308 149.955ZM148.094 156.558C146.979 156.153 146.081 155.579 145.4 154.836C144.737 154.084 144.314 153.236 144.132 152.29C143.963 151.35 144.058 150.384 144.417 149.394C144.781 148.391 145.321 147.587 146.037 146.982C146.77 146.368 147.605 145.983 148.541 145.827C149.49 145.675 150.466 145.78 151.468 146.144C152.446 146.499 153.24 147.028 153.85 147.732C154.46 148.435 154.843 149.255 155 150.191C155.156 151.128 155.044 152.122 154.662 153.175C154.625 153.275 154.578 153.386 154.52 153.507C154.475 153.632 154.425 153.749 154.372 153.857L146.006 150.821L146.572 149.261L153.697 151.846L152.599 152.001C152.82 151.429 152.885 150.878 152.794 150.348C152.702 149.819 152.483 149.349 152.135 148.939C151.8 148.534 151.35 148.229 150.786 148.024C150.21 147.815 149.657 147.756 149.127 147.848C148.61 147.944 148.144 148.172 147.73 148.532C147.332 148.884 147.025 149.361 146.806 149.963L146.67 150.339C146.452 150.941 146.396 151.523 146.504 152.087C146.611 152.651 146.87 153.149 147.28 153.582C147.691 154.014 148.222 154.349 148.874 154.585C149.438 154.79 149.977 154.886 150.492 154.875C151.007 154.863 151.508 154.733 151.995 154.484L152.73 156.389C152.088 156.752 151.369 156.952 150.575 156.99C149.799 157.02 148.972 156.876 148.094 156.558ZM155.273 159.014L155.231 147.637L157.449 148.442L157.395 158.443L156.342 158.061L162.864 150.407L164.838 151.123L164.84 161.145L163.806 160.769L170.271 153.095L172.358 153.852L165.012 162.547L162.756 161.729L162.667 152.825L163.363 153.077L157.529 159.832L155.273 159.014ZM171.993 165.08L176.768 151.92L178.78 152.65L183.356 165.778L182.36 165.417L186.037 155.283L188.462 156.163L183.687 169.324L181.675 168.594L177.098 155.465L178.095 155.827L174.418 165.96L171.993 165.08ZM189.572 171.608C188.544 171.235 187.709 170.684 187.066 169.954C186.427 169.212 186.017 168.368 185.835 167.422C185.654 166.477 185.742 165.509 186.102 164.519C186.465 163.517 187.018 162.717 187.759 162.121C188.505 161.512 189.358 161.134 190.32 160.986C191.281 160.838 192.276 160.951 193.303 161.324C194.344 161.702 195.185 162.255 195.828 162.985C196.484 163.719 196.898 164.55 197.072 165.479C197.259 166.412 197.168 167.386 196.799 168.401C196.44 169.391 195.887 170.19 195.142 170.799C194.408 171.413 193.553 171.797 192.574 171.953C191.613 172.1 190.612 171.985 189.572 171.608ZM190.302 169.596C190.878 169.805 191.438 169.867 191.98 169.78C192.522 169.693 193.005 169.457 193.428 169.071C193.864 168.69 194.198 168.18 194.43 167.541C194.667 166.89 194.738 166.284 194.643 165.725C194.565 165.158 194.346 164.667 193.985 164.252C193.625 163.838 193.163 163.528 192.599 163.324C192.022 163.115 191.463 163.053 190.921 163.14C190.391 163.232 189.908 163.468 189.472 163.849C189.041 164.217 188.707 164.727 188.47 165.379C188.239 166.018 188.168 166.623 188.258 167.195C188.349 167.767 188.568 168.258 188.915 168.668C189.276 169.082 189.738 169.392 190.302 169.596ZM195.345 173.554L198.988 163.514L201.225 164.326L200.243 167.033L200.148 166.063C200.731 165.551 201.416 165.246 202.203 165.149C203.007 165.044 203.848 165.15 204.725 165.468C205.527 165.76 206.185 166.175 206.698 166.716C207.224 167.261 207.55 167.926 207.677 168.71C207.808 169.481 207.69 170.374 207.322 171.389L205.234 177.142L202.884 176.289L204.862 170.837C205.185 169.947 205.213 169.206 204.946 168.612C204.692 168.024 204.189 167.593 203.437 167.32C202.885 167.12 202.355 167.055 201.847 167.126C201.339 167.197 200.884 167.415 200.482 167.78C200.098 168.137 199.782 168.654 199.537 169.33L197.695 174.407L195.345 173.554ZM210.066 179.044C208.963 178.644 208.213 178.053 207.816 177.271C207.424 176.476 207.43 175.521 207.835 174.405L211.103 165.4L213.453 166.252L210.206 175.201C210.033 175.678 210.018 176.091 210.16 176.44C210.315 176.794 210.612 177.051 211.051 177.21C211.577 177.401 212.066 177.423 212.517 177.274L212.568 179.186C212.21 179.312 211.811 179.358 211.369 179.325C210.927 179.293 210.493 179.199 210.066 179.044ZM207.961 168.898L208.643 167.018L215.336 169.446L214.654 171.326L207.961 168.898ZM212.423 179.751L217.485 165.801L219.835 166.653L217.434 173.271L217.227 172.26C217.809 171.748 218.494 171.443 219.281 171.346C220.086 171.241 220.926 171.347 221.804 171.665C222.606 171.956 223.263 172.372 223.776 172.913C224.302 173.458 224.628 174.123 224.755 174.907C224.887 175.678 224.768 176.571 224.4 177.586L222.313 183.339L219.962 182.486L221.941 177.034C222.264 176.144 222.292 175.403 222.025 174.809C221.77 174.221 221.267 173.79 220.515 173.517C219.963 173.317 219.434 173.252 218.926 173.323C218.418 173.394 217.963 173.612 217.561 173.977C217.176 174.334 216.861 174.85 216.615 175.527L214.773 180.603L212.423 179.751Z" fill="#043F09"/>
</svg>
